<svg width="192" height="192" viewBox="0 0 192 192" fill="none" xmlns="http://www.w3.org/2000/svg">
<path d="M163.643 163.637H134.779V113.553C134.779 98.7771 128.497 94.2197 120.394 94.2197C111.83 94.2197 103.432 100.665 103.432 113.921V163.637H74.5671V71.9396H102.326V84.6443H102.695C105.488 78.9989 115.238 69.3615 130.131 69.3615C146.237 69.3615 163.643 78.9156 163.643 106.924V163.637ZM42.7947 59.1631C33.6029 59.1631 26.1525 52.168 26.1525 42.5947C26.1525 33.0213 33.6029 26.0187 42.7947 26.0187C51.9853 26.0187 59.4363 33.0213 59.4363 42.5947C59.4363 52.168 51.9853 59.1631 42.7947 59.1631ZM57.2269 163.568H28.3624V71.8688H57.2269V163.568ZM177.832 -1.00136e-05H14.1733C6.34518 -1.00136e-05 0.00039053 6.34533 0.00039053 14.1733V177.827C0.00039053 185.655 6.34518 192 14.1733 192H177.832C185.66 192 192.005 185.655 192.005 177.827V14.1733C192.005 6.34533 185.66 -1.00136e-05 177.832 -1.00136e-05Z"/>
</svg>
