<svg width="1200" height="630" viewBox="0 0 1200 630" fill="none" xmlns="http://www.w3.org/2000/svg">
<path d="M0 0H1200V630H0V0Z" fill="#1C1C1E"/>
<path fill-rule="evenodd" clip-rule="evenodd" d="M358.375 65C337.058 65 316.615 73.4662 301.541 88.5361C286.468 103.606 278 124.045 278 145.357V484.643C278 505.955 286.468 526.394 301.541 541.464C316.615 556.534 337.058 565 358.375 565H840.625C851.18 565 861.632 562.922 871.383 558.883C881.135 554.845 889.995 548.926 897.459 541.464C904.922 534.002 910.843 525.144 914.882 515.394C918.921 505.645 921 495.196 921 484.643V145.357C921 134.804 918.921 124.355 914.882 114.606C910.843 104.856 904.922 95.9979 897.459 88.5361C889.995 81.0742 881.135 75.1551 871.383 71.1168C861.632 67.0785 851.18 65 840.625 65H358.375ZM392.061 377.571C389.701 374.958 387.88 371.905 386.702 368.587C385.523 365.269 385.011 361.752 385.193 358.236C385.376 354.72 386.25 351.274 387.765 348.096C389.281 344.918 391.408 342.07 394.026 339.714L461.184 279.286L394.026 218.821C391.328 216.491 389.122 213.645 387.538 210.452C385.954 207.258 385.024 203.78 384.802 200.222C384.579 196.664 385.07 193.098 386.244 189.732C387.418 186.366 389.253 183.268 391.64 180.62C394.027 177.972 396.918 175.827 400.145 174.311C403.372 172.795 406.87 171.938 410.432 171.79C413.995 171.642 417.551 172.207 420.892 173.452C424.234 174.696 427.293 176.594 429.891 179.036L519.196 259.393C521.982 261.904 524.21 264.973 525.734 268.4C527.259 271.827 528.047 275.535 528.047 279.286C528.047 283.036 527.259 286.745 525.734 290.172C524.21 293.599 521.982 296.667 519.196 299.179L429.891 379.536C427.277 381.895 424.223 383.716 420.905 384.894C417.586 386.072 414.068 386.584 410.551 386.402C407.034 386.22 403.588 385.346 400.409 383.831C397.23 382.315 394.417 380.188 392.061 377.571ZM590.569 323.929C583.464 323.929 576.649 326.751 571.625 331.774C566.6 336.797 563.778 343.61 563.778 350.714C563.778 357.818 566.6 364.631 571.625 369.655C576.649 374.678 583.464 377.5 590.569 377.5H679.875C686.981 377.5 693.795 374.678 698.82 369.655C703.844 364.631 706.667 357.818 706.667 350.714C706.667 343.61 703.844 336.797 698.82 331.774C693.795 326.751 686.981 323.929 679.875 323.929H590.569Z" fill="#007AFF"/>
</svg>
