<svg width="568" height="442" viewBox="0 0 568 442" fill="none" xmlns="http://www.w3.org/2000/svg">
<path fill-rule="evenodd" clip-rule="evenodd" d="M71.375 0.5C52.5778 0.5 34.5504 7.96717 21.2588 21.2588C7.96717 34.5504 0.5 52.5778 0.5 71.375V370.625C0.5 389.422 7.96717 407.45 21.2588 420.741C34.5504 434.033 52.5778 441.5 71.375 441.5H496.625C505.932 441.5 515.149 439.667 523.748 436.105C532.347 432.543 540.16 427.323 546.741 420.741C553.323 414.16 558.543 406.347 562.105 397.748C565.667 389.149 567.5 379.932 567.5 370.625V71.375C567.5 62.0676 565.667 52.8513 562.105 44.2523C558.543 35.6534 553.323 27.8402 546.741 21.2588C540.16 14.6775 532.347 9.45684 523.748 5.89504C515.149 2.33324 505.932 0.5 496.625 0.5H71.375ZM101.079 276.188C98.9987 273.883 97.3929 271.19 96.3537 268.264C95.3145 265.337 94.8625 262.235 95.0234 259.134C95.1843 256.033 95.955 252.994 97.2915 250.191C98.6279 247.388 100.504 244.875 102.812 242.798L162.032 189.5L102.812 136.171C100.433 134.115 98.4879 131.605 97.0912 128.788C95.6945 125.971 94.8742 122.904 94.6782 119.766C94.4822 116.628 94.9146 113.482 95.95 110.514C96.9854 107.545 98.603 104.813 100.708 102.477C102.813 100.142 105.363 98.2496 108.208 96.9123C111.054 95.5749 114.138 94.819 117.279 94.6888C120.421 94.5587 123.556 95.0569 126.503 96.1542C129.449 97.2516 132.147 98.9261 134.438 101.079L213.188 171.954C215.645 174.17 217.609 176.876 218.953 179.899C220.298 182.921 220.992 186.192 220.992 189.5C220.992 192.808 220.298 196.079 218.953 199.101C217.609 202.124 215.645 204.83 213.188 207.046L134.438 277.921C132.133 280.001 129.44 281.607 126.514 282.646C123.587 283.685 120.485 284.138 117.384 283.977C114.283 283.816 111.244 283.045 108.441 281.709C105.638 280.372 103.157 278.496 101.079 276.188ZM276.125 228.875C269.859 228.875 263.85 231.364 259.42 235.795C254.989 240.225 252.5 246.234 252.5 252.5C252.5 258.766 254.989 264.775 259.42 269.205C263.85 273.636 269.859 276.125 276.125 276.125H354.875C361.141 276.125 367.15 273.636 371.58 269.205C376.011 264.775 378.5 258.766 378.5 252.5C378.5 246.234 376.011 240.225 371.58 235.795C367.15 231.364 361.141 228.875 354.875 228.875H276.125Z" fill="#007AFF"/>
</svg>
